<?xml version="1.0" encoding="UTF-8"?>
<svg version="1.1" xmlns="http://www.w3.org/2000/svg" width="277" height="277">
<path d="M0 0 C91.41 0 182.82 0 277 0 C277 91.41 277 182.82 277 277 C185.59 277 94.18 277 0 277 C0 185.59 0 94.18 0 0 Z " fill="#31AAA7" transform="translate(0,0)"/>
<path d="M0 0 C91.41 0 182.82 0 277 0 C277 91.41 277 182.82 277 277 C185.59 277 94.18 277 0 277 C0 185.59 0 94.18 0 0 Z M52 34 C52 34.66 52 35.32 52 36 C51.40396973 36.27295898 50.80793945 36.54591797 50.19384766 36.82714844 C30.19496495 47.51873897 14.98781998 77.65814679 8.66015625 98.28515625 C8.20562778 99.83438956 7.75639094 101.38518534 7.3125 102.9375 C7.10979492 103.64052246 6.90708984 104.34354492 6.69824219 105.06787109 C0.48260249 127.88103282 0.89660991 153.22136582 7 176 C7.27287842 177.02818848 7.27287842 177.02818848 7.55126953 178.07714844 C11.51920667 192.43831504 18.62558126 205.74749473 27 218 C27.54527344 218.84304687 28.09054688 219.68609375 28.65234375 220.5546875 C37.2788541 233.27737453 49.07318784 244.73132999 62 253 C63.02480469 253.67289063 64.04960938 254.34578125 65.10546875 255.0390625 C83.3485217 266.67799951 104.2115723 275 126 275 C126 253.55 126 232.1 126 210 C112.40311827 209.86915554 112.40311827 209.86915554 98.8059082 209.79223633 C97.09583466 209.76578172 95.38578794 209.73750263 93.67578125 209.70703125 C92.79450562 209.71101929 91.91322998 209.71500732 91.00524902 209.71911621 C90.15313843 209.69941772 89.30102783 209.67971924 88.4230957 209.65942383 C87.32056206 209.64943108 87.32056206 209.64943108 86.195755 209.63923645 C82.70406052 208.62272123 81.20254893 206.84421211 79 204 C78.50061836 201.30592825 78.30665695 199.2347105 78.34057617 196.54760742 C78.33009247 195.8153595 78.31960876 195.08311157 78.30880737 194.32867432 C78.2801216 191.92050465 78.28634061 189.51377821 78.29296875 187.10546875 C78.27984966 185.43107812 78.26454478 183.75670332 78.24714661 182.08235168 C78.20730786 177.68465827 78.19710693 173.28737895 78.19311523 168.88952637 C78.18378161 164.39822843 78.14636667 159.90717358 78.11132812 155.41601562 C78.04676377 146.6106726 78.01351434 137.80556866 78 129 C92.89060069 129.08394822 107.78109855 129.17909938 122.67154121 129.28752708 C129.58569255 129.33761365 136.49983227 129.38405695 143.4140625 129.421875 C150.08606031 129.45837843 156.75791498 129.50509872 163.42980576 129.55806351 C165.97587725 129.57660297 168.5219761 129.59171257 171.06808853 129.60334396 C174.63292777 129.6202137 178.19747503 129.64925142 181.76220703 129.68115234 C183.34285194 129.68439262 183.34285194 129.68439262 184.95542908 129.68769836 C189.95948163 129.74494198 194.39151968 129.79939258 199 132 C200.3125 134.5 200.3125 134.5 201 137 C201.33 137.66 201.66 138.32 202 139 C202.5959838 145.07903472 201.33034413 148.10243511 198 153 C194.9034249 154.54828755 191.63174565 154.14420673 188.2331543 154.1418457 C187.43134735 154.14532013 186.62954041 154.14879456 185.80343628 154.15237427 C184.05899947 154.15973564 182.31455326 154.16507899 180.5701046 154.16866493 C177.80868782 154.1758215 175.04744965 154.19148214 172.28608704 154.21000671 C164.4336696 154.26251306 156.58134895 154.31045465 148.72875977 154.32592773 C143.92817032 154.33600821 139.1280284 154.36533547 134.32761574 154.40724754 C132.49803871 154.41956282 130.66839848 154.42467784 128.83878136 154.42244911 C126.27704492 154.42009661 123.71659225 154.44225792 121.1550293 154.4699707 C120.40003647 154.46336929 119.64504364 154.45676788 118.86717224 154.44996643 C115.20548118 154.51496562 113.14681754 154.9063823 110.02975464 156.89396667 C107.67390302 159.33835179 107.36803389 160.28499613 107.37109375 163.625 C107.36916016 164.49640625 107.36722656 165.3678125 107.36523438 166.265625 C107.40100586 167.61914062 107.40100586 167.61914062 107.4375 169 C107.42106445 170.35351562 107.42106445 170.35351562 107.40429688 171.734375 C107.34393908 176.74524341 107.34393908 176.74524341 109.54519653 181.10801697 C112.87758713 183.67638 115.77242286 183.55180639 119.81030273 183.49829102 C120.59289459 183.50380981 121.37548645 183.50932861 122.18179321 183.51501465 C123.87815786 183.52432854 125.57459243 183.52444481 127.27096367 183.51642036 C129.95720721 183.50379527 132.64242245 183.51507511 135.32862854 183.53245544 C140.06305995 183.55917159 144.79723965 183.56475063 149.53173828 183.56335449 C157.10617856 183.56112709 164.68030703 183.57524852 172.25462532 183.61894035 C174.89871225 183.62877649 177.54230927 183.62006221 180.18638611 183.61024475 C181.81102824 183.61638986 183.43566771 183.6233019 185.06030273 183.63110352 C186.16002663 183.61952461 186.16002663 183.61952461 187.28196716 183.60771179 C191.74429741 183.65188481 194.35156294 184.46870736 198 187 C198.66 187 199.32 187 200 187 C202.34445392 191.54237946 202.73714752 195.99467733 202 201 C199.69042739 204.93482741 197.09132979 207.05722006 193 209 C189.85046368 209.46351952 186.72269356 209.48862436 183.54296875 209.51171875 C182.74201782 209.52835571 181.94106689 209.54499268 181.11584473 209.56213379 C178.13999361 209.61972182 175.16369815 209.65213311 172.1875 209.6875 C162.1946875 209.8421875 162.1946875 209.8421875 152 210 C152 231.45 152 252.9 152 275 C184.58459606 275 214.78668425 257.81716104 237.5859375 235.43701172 C255.79264599 216.93482142 267.14096971 194.12231463 273 169 C273.23332031 168.02417969 273.46664063 167.04835937 273.70703125 166.04296875 C279.4498772 139.80766531 275.83170826 110.48024146 265 86 C264.5985376 85.09048584 264.5985376 85.09048584 264.18896484 84.16259766 C257.01301882 68.1939905 246.87142318 52.97180758 234 41 C233.34 41 232.68 41 232 41 C232 40.34 232 39.68 232 39 C230.01965919 37.21494704 228.04059499 35.56796127 225.9375 33.9375 C224.9928186 33.20321777 224.9928186 33.20321777 224.02905273 32.45410156 C217.35670492 27.36836496 210.37044466 22.9969078 203 19 C202.4117041 18.68047363 201.8234082 18.36094727 201.21728516 18.03173828 C193.59828412 13.98870111 185.77127192 11.11323113 177.5 8.6875 C176.68257324 8.44491455 175.86514648 8.2023291 175.02294922 7.95239258 C167.29091107 5.80914979 160.16959862 5.08927982 152 4 C152 27.76 152 51.52 152 76 C165.64198764 76.289034 165.64198764 76.289034 179.28417969 76.56811523 C180.99675285 76.60624786 182.70931855 76.64471781 184.421875 76.68359375 C185.3082666 76.70006958 186.1946582 76.71654541 187.10791016 76.73352051 C187.9601416 76.75370239 188.81237305 76.77388428 189.69042969 76.79467773 C190.42767273 76.81022202 191.16491577 76.8257663 191.92449951 76.84178162 C194.07638808 77.00582317 195.95300728 77.31260848 198 78 C200.48396176 82.40254416 201.77482161 88.01900394 201 93 C198.66013882 97.41973779 196.56490433 99.97428753 192 102 C188.32431046 102.45547499 184.66769318 102.43743986 180.9675293 102.43237305 C179.29857353 102.44766052 179.29857353 102.44766052 177.59590149 102.46325684 C173.92195628 102.49342664 170.24827165 102.50265917 166.57421875 102.51171875 C164.0254479 102.52856242 161.47668538 102.54671223 158.92793274 102.56611633 C152.90739161 102.6087983 146.8869254 102.63831607 140.86628896 102.66143972 C134.01011697 102.68850828 127.15408501 102.73241869 120.29801309 102.77772844 C106.19875148 102.87052975 92.09944557 102.94223108 78 103 C78.05189759 99.41548691 78.14697784 95.83337949 78.25 92.25 C78.26417969 91.23421875 78.27835937 90.2184375 78.29296875 89.171875 C78.53893352 81.69454601 78.53893352 81.69454601 80.77178955 78.33099365 C83.21866773 76.86938157 84.56953658 76.48741722 87.40136719 76.45410156 C88.71016846 76.42437256 88.71016846 76.42437256 90.04541016 76.39404297 C90.95339355 76.39291504 91.86137695 76.39178711 92.796875 76.390625 C93.63814941 76.37499512 94.47942383 76.35936523 95.34619141 76.34326172 C98.48050889 76.2907691 101.61532311 76.27241342 104.75 76.25 C115.26875 76.12625 115.26875 76.12625 126 76 C126 52.24 126 28.48 126 4 C100.19791815 4 71.6215108 17.91452118 52 34 Z " fill="#F8F8F8" transform="translate(0,0)"/>
<path d="M0 0 C0 23.76 0 47.52 0 72 C-21.25 72.25 -21.25 72.25 -27.94238281 72.29785156 C-29.69599028 72.32722046 -31.44957423 72.3580461 -33.203125 72.390625 C-34.5651001 72.39231689 -34.5651001 72.39231689 -35.95458984 72.39404297 C-37.26339111 72.42377197 -37.26339111 72.42377197 -38.59863281 72.45410156 C-39.35364075 72.46298401 -40.10864868 72.47186646 -40.88653564 72.48101807 C-43.88792596 73.21803894 -45.04231142 74.64327123 -47 77 C-47.59838358 79.43370844 -47.59838358 79.43370844 -47.5146637 82.1169281 C-47.53375038 83.66674881 -47.53375038 83.66674881 -47.55322266 85.24787903 C-47.54669678 86.37578354 -47.5401709 87.50368805 -47.53344727 88.66577148 C-47.54206284 89.85801331 -47.55067841 91.05025513 -47.55955505 92.27862549 C-47.57836743 95.54535387 -47.57910959 98.81144335 -47.57023358 102.07819629 C-47.5651215 104.80684953 -47.57241806 107.5354119 -47.57970566 110.26405579 C-47.59670501 116.70224111 -47.59313899 123.14018942 -47.57641602 129.57836914 C-47.55949596 136.21667936 -47.5753267 142.85433196 -47.6076389 149.49257034 C-47.63434498 155.19549147 -47.6416081 160.89820801 -47.63312382 166.60118538 C-47.62819722 170.00577612 -47.63039478 173.40997125 -47.65091133 176.81451225 C-47.6682994 180.61177591 -47.65385921 184.40762756 -47.63110352 188.20483398 C-47.64279572 189.33071426 -47.65448792 190.45659454 -47.66653442 191.61659241 C-47.60719476 197.81702023 -47.60719476 197.81702023 -44.73699951 203.19598389 C-42.01612292 204.98937303 -40.77426784 205.6304447 -37.5769043 205.65942383 C-36.7247937 205.67912231 -35.87268311 205.6988208 -34.99475098 205.71911621 C-34.11347534 205.71512817 -33.23219971 205.71114014 -32.32421875 205.70703125 C-31.09330505 205.72896545 -31.09330505 205.72896545 -29.83752441 205.75134277 C-26.78781305 205.79852141 -23.73756147 205.8030011 -20.6875 205.8125 C-13.860625 205.874375 -7.03375 205.93625 0 206 C0 227.45 0 248.9 0 271 C-24.60271585 271 -48.43513348 260.5722371 -68 246 C-68.77730469 245.42894531 -69.55460937 244.85789063 -70.35546875 244.26953125 C-98.00513525 223.11505557 -117.70745379 191.04897429 -122.49609375 156.375 C-124.35791845 139.45767929 -124.39653591 121.50473761 -120 105 C-119.65477746 103.54852653 -119.31110427 102.09668393 -118.96875 100.64453125 C-113.2263628 77.2844801 -100.88741155 57.01671791 -84 40 C-82.81470703 38.75863281 -82.81470703 38.75863281 -81.60546875 37.4921875 C-77.67585739 33.4280489 -77.67585739 33.4280489 -76 32 C-75.34 32 -74.68 32 -74 32 C-74 31.34 -74 30.68 -74 30 C-72.6015625 28.79833984 -72.6015625 28.79833984 -70.625 27.4609375 C-69.89563232 26.96682373 -69.16626465 26.47270996 -68.41479492 25.96362305 C-48.6060038 12.93199795 -24.44461271 0 0 0 Z " fill="#333333" transform="translate(126,4)"/>
<path d="M0 0 C14.89047465 -0.07013185 29.78093648 -0.12300861 44.67154121 -0.15543652 C51.58577119 -0.17089467 58.49989846 -0.19196395 65.4140625 -0.22631836 C72.0859913 -0.25945333 78.75779131 -0.27685113 85.42980576 -0.28463173 C87.97591711 -0.29017691 90.52202259 -0.30100517 93.06808853 -0.31719017 C96.63292335 -0.33895112 100.19731653 -0.3419674 103.76220703 -0.34057617 C104.81597031 -0.351362 105.86973358 -0.36214783 106.95542908 -0.3732605 C112.39648333 -0.35026693 116.31099605 -0.09600289 121 3 C123.83508295 6.06249602 124.8960373 9.36467239 125.5625 13.4375 C124.8316392 18.06628509 122.92411708 21.36700605 120 25 C116.90023543 26.54988228 113.61999946 26.15306421 110.21728516 26.15771484 C109.0121653 26.16533592 109.0121653 26.16533592 107.78269958 26.17311096 C106.03499065 26.18382454 104.28726792 26.19244084 102.53953934 26.19923019 C99.77420078 26.21100076 97.00901969 26.2304486 94.2437439 26.25234985 C86.38032255 26.3140294 78.51691689 26.36803253 70.65332031 26.40136719 C65.84630987 26.42229553 61.0395856 26.45758444 56.23273849 26.50212479 C54.39954367 26.51630035 52.5662982 26.52501073 50.7330513 26.52817917 C48.16889696 26.53307995 45.60550393 26.55621592 43.04150391 26.58349609 C42.2829158 26.58048996 41.5243277 26.57748383 40.74275208 26.5743866 C37.55272214 26.6248685 35.33430752 26.81155918 32.52876282 28.39297485 C30.51743082 30.50727347 30.49723828 31.67266055 30.50390625 34.5625 C30.50326172 35.44164062 30.50261719 36.32078125 30.50195312 37.2265625 C30.53192383 38.59941406 30.53192383 38.59941406 30.5625 40 C30.55541016 40.91523438 30.54832031 41.83046875 30.54101562 42.7734375 C30.39961554 47.41709664 30.39961554 47.41709664 32.04618835 51.61000061 C35.03906183 53.73921932 38.12647177 53.4060283 41.66503906 53.36889648 C42.44427231 53.37266296 43.22350555 53.37642944 44.02635193 53.38031006 C45.71892341 53.38674664 47.41153103 53.38640863 49.10410309 53.38012505 C51.78650558 53.3710229 54.46820775 53.38122971 57.15057373 53.39674377 C64.77696615 53.43685963 72.40330481 53.43805057 80.02978516 53.43579102 C84.69532712 53.43573981 89.36049338 53.45496353 94.02593231 53.48512459 C96.66225195 53.49592628 99.29784691 53.48383097 101.93414307 53.47129822 C103.56189683 53.48020748 105.18964476 53.49028355 106.81738281 53.50170898 C107.54491257 53.49196548 108.27244232 53.48222198 109.02201843 53.47218323 C114.52120984 53.54886494 117.55865335 54.99274831 122 58 C125.19068829 61.60239001 125.58104804 65.11798242 125.41796875 69.78515625 C124.54603716 74.4055788 121.52225316 76.79827749 117.9152832 79.64575195 C113.76138641 81.57537808 110.06747787 81.37374463 105.54296875 81.29296875 C104.74201782 81.28994751 103.94106689 81.28692627 103.11584473 81.28381348 C100.13959771 81.26818237 97.16353517 81.22629844 94.1875 81.1875 C87.525625 81.125625 80.86375 81.06375 74 81 C74 102.78 74 124.56 74 147 C75.32 147.33 76.64 147.66 78 148 C67.77 148 57.54 148 47 148 C47.66 147.67 48.32 147.34 49 147 C49 125.22 49 103.44 49 81 C35.07353946 81.15809391 35.07353946 81.15809391 21.14770508 81.36035156 C19.39665706 81.37203838 17.64559815 81.38223022 15.89453125 81.390625 C14.99166382 81.41108887 14.08879639 81.43155273 13.15856934 81.45263672 C8.90293932 81.45499474 6.63084013 81.39210164 2.9440918 79.10058594 C-0.39433161 75.49342846 -0.1378257 72.57967497 -0.11352539 67.88818359 C-0.11367142 67.15637375 -0.11381744 66.4245639 -0.1139679 65.670578 C-0.11327003 63.24650124 -0.10548354 60.82250088 -0.09765625 58.3984375 C-0.09579162 56.71977785 -0.09436793 55.04111766 -0.09336853 53.36245728 C-0.08954688 48.94012962 -0.07971959 44.51783472 -0.06866455 40.09552002 C-0.05844286 35.58451785 -0.05386928 31.07351041 -0.04882812 26.5625 C-0.03809702 17.70831893 -0.02102481 8.85416219 0 0 Z " fill="#FDFDFD" transform="translate(78,129)"/>
<path d="M0 0 C0.33 0 0.66 0 1 0 C1 21.78 1 43.56 1 66 C-2.13997668 67.56998834 -5.49176361 67.12944545 -8.93798828 67.11352539 C-9.75758026 67.11367142 -10.57717224 67.11381744 -11.42160034 67.1139679 C-14.1378644 67.11326974 -16.85406038 67.10548188 -19.5703125 67.09765625 C-21.45075442 67.09579173 -23.33119683 67.09436798 -25.2116394 67.09336853 C-30.16661922 67.08954607 -35.12156983 67.07971808 -40.07653809 67.06866455 C-45.13044845 67.05844461 -50.18436353 67.05386966 -55.23828125 67.04882812 C-65.15886701 67.03809559 -75.07943108 67.0210224 -85 67 C-85 63.04 -85 59.08 -85 55 C-81.7 55 -78.4 55 -75 55 C-75 58.63 -75 62.26 -75 66 C-71.37 66 -67.74 66 -64 66 C-64 62.37 -64 58.74 -64 55 C-60.7 55 -57.4 55 -54 55 C-54 53.02 -54 51.04 -54 49 C-52.52853516 49.67095703 -52.52853516 49.67095703 -51.02734375 50.35546875 C-34.47765027 57.80831085 -18.1605714 63.18394286 0 65 C0 43.55 0 22.1 0 0 Z " fill="#F0F0F0" transform="translate(126,210)"/>
<path d="M0 0 C1.32 0 2.64 0 4 0 C3.58460168 1.5420089 3.16756168 3.08357551 2.75 4.625 C2.47800781 5.63046875 2.20601562 6.6359375 1.92578125 7.671875 C1.30093582 9.91815479 0.65185544 12.15781408 -0.01953125 14.390625 C-0.36371094 15.54046875 -0.70789062 16.6903125 -1.0625 17.875 C-1.38347656 18.92429687 -1.70445312 19.97359375 -2.03515625 21.0546875 C-9.80625987 50.42817999 -5.84202923 84.09065081 7.30078125 111.36328125 C8 113 8 113 8 115 C5.36 115 2.72 115 0 115 C0 111.7 0 108.4 0 105 C-2.97 105 -5.94 105 -9 105 C-9 73.65 -9 42.3 -9 10 C-6.03 10 -3.06 10 0 10 C0 6.7 0 3.4 0 0 Z " fill="#F6F6F6" transform="translate(9,87)"/>
<path d="M0 0 C0.33 0 0.66 0 1 0 C1 21.78 1 43.56 1 66 C-1.52744088 67.26372044 -3.26380308 67.12022795 -6.09228516 67.11352539 C-7.68370834 67.11341209 -7.68370834 67.11341209 -9.30728149 67.11329651 C-11.03076309 67.10555458 -11.03076309 67.10555458 -12.7890625 67.09765625 C-14.54940323 67.09553383 -14.54940323 67.09553383 -16.3453064 67.09336853 C-20.10522985 67.08775689 -23.86509445 67.07520238 -27.625 67.0625 C-30.16926998 67.0574865 -32.71354088 67.05292333 -35.2578125 67.04882812 C-41.50522853 67.03778368 -47.75261006 67.02103418 -54 67 C-54 66.67 -54 66.34 -54 66 C-50.37 66 -46.74 66 -43 66 C-43 62.37 -43 58.74 -43 55 C-46.63 55 -50.26 55 -54 55 C-54 53.02 -54 51.04 -54 49 C-52.52853516 49.67095703 -52.52853516 49.67095703 -51.02734375 50.35546875 C-34.47765027 57.80831085 -18.1605714 63.18394286 0 65 C0 43.55 0 22.1 0 0 Z " fill="#D3D3D3" transform="translate(126,210)"/>
<path d="M0 0 C0 2.31 0 4.62 0 7 C-3.63 7 -7.26 7 -11 7 C-11 10.96 -11 14.92 -11 19 C-16.90819071 19.04945048 -22.81626084 19.08574364 -28.72460938 19.10986328 C-30.73439635 19.1199187 -32.7441687 19.13356485 -34.75390625 19.15087891 C-37.64326588 19.17514724 -40.53243202 19.18648771 -43.421875 19.1953125 C-44.31992859 19.20563507 -45.21798218 19.21595764 -46.14324951 19.22659302 C-46.98381897 19.22674408 -47.82438843 19.22689514 -48.69042969 19.22705078 C-49.79629425 19.23371262 -49.79629425 19.23371262 -50.92449951 19.24050903 C-53.30519726 18.96463374 -54.93016431 18.17901432 -57 17 C-56.09121094 16.90203125 -55.18242187 16.8040625 -54.24609375 16.703125 C-41.45059746 15.18078903 -29.52465658 12.11785264 -17.5 7.5 C-16.75838623 7.21552002 -16.01677246 6.93104004 -15.25268555 6.63793945 C-11.70899178 5.23176266 -8.38447689 3.71217239 -5.09375 1.78125 C-2 0 -2 0 0 0 Z " fill="#FBFCFC" transform="translate(209,258)"/>
<path d="M0 0 C3.3 0 6.6 0 10 0 C10.66894135 5.74534305 10.66894135 5.74534305 10 9 C7.81184474 11.51191293 5.17440624 12.89687422 2.25 14.4375 C1.52039063 14.85708984 0.79078125 15.27667969 0.0390625 15.70898438 C-3.25308991 17.58551125 -6.60520892 19.31722905 -10 21 C-10 21.66 -10 22.32 -10 23 C-11.64453125 24.65625 -11.64453125 24.65625 -13.8125 26.5 C-14.52019531 27.1084375 -15.22789063 27.716875 -15.95703125 28.34375 C-18 30 -18 30 -21 32 C-21 28.37 -21 24.74 -21 21 C-17.7 21 -14.4 21 -11 21 C-11 17.7 -11 14.4 -11 11 C-7.37 11 -3.74 11 0 11 C0 7.37 0 3.74 0 0 Z " fill="#ECECEC" transform="translate(62,13)"/>
<path d="M0 0 C1.32 0 2.64 0 4 0 C3.58460168 1.5420089 3.16756168 3.08357551 2.75 4.625 C2.47800781 5.63046875 2.20601562 6.6359375 1.92578125 7.671875 C1.30093582 9.91815479 0.65185544 12.15781408 -0.01953125 14.390625 C-4.55693587 29.54929511 -5.4792145 44.27693527 -6 60 C-6.33 60 -6.66 60 -7 60 C-7 54.06 -7 48.12 -7 42 C-7.66 42 -8.32 42 -9 42 C-9 31.44 -9 20.88 -9 10 C-6.03 10 -3.06 10 0 10 C0 6.7 0 3.4 0 0 Z " fill="#E9E9E9" transform="translate(9,87)"/>
<path d="M0 0 C1.84597919 2.76896878 2.83493479 5.01656315 3.9375 8.125 C4.28167969 9.09308594 4.62585937 10.06117188 4.98046875 11.05859375 C6.35614766 15.02750646 7.69832213 19.00621562 9 23 C6.36 23 3.72 23 1 23 C1 19.7 1 16.4 1 13 C-1.97 13 -4.94 13 -8 13 C-8 9.37 -8 5.74 -8 2 C-5.36 2 -2.72 2 0 2 C0 1.34 0 0.68 0 0 Z " fill="#ECECEC" transform="translate(8,179)"/>
<path d="M0 0 C0 2.31 0 4.62 0 7 C-3.63 7 -7.26 7 -11 7 C-11 10.63 -11 14.26 -11 18 C-14.3 18 -17.6 18 -21 18 C-21.33 15.03 -21.66 12.06 -22 9 C-21.14277344 8.68546875 -20.28554687 8.3709375 -19.40234375 8.046875 C-14.08559739 6.05684141 -5.45162179 0 0 0 Z " fill="#ECEEEE" transform="translate(209,258)"/>
<path d="M0 0 C3.63 0 7.26 0 11 0 C10.21625 0.86625 9.4325 1.7325 8.625 2.625 C6.40858814 5.1678193 4.43294495 7.78822859 2.55078125 10.58203125 C2.12007324 11.2147998 1.68936523 11.84756836 1.24560547 12.49951172 C0.38000203 13.78192308 -0.47155779 15.07393683 -1.30810547 16.37548828 C-2.53515625 18.18359375 -2.53515625 18.18359375 -5 21 C-6.65 21 -8.3 21 -10 21 C-10 17.37 -10 13.74 -10 10 C-6.7 10 -3.4 10 0 10 C0 6.7 0 3.4 0 0 Z " fill="#EDEDED" transform="translate(30,45)"/>
<path d="M0 0 C1.98 0 3.96 0 6 0 C6 3.3 6 6.6 6 10 C9.63 10 13.26 10 17 10 C17 13.63 17 17.26 17 21 C14.69 21 12.38 21 10 21 C8.32666842 17.87852455 6.66248284 14.75226502 5 11.625 C4.52304687 10.73554687 4.04609375 9.84609375 3.5546875 8.9296875 C3.10351562 8.07890625 2.65234375 7.228125 2.1875 6.3515625 C1.76855469 5.56604004 1.34960938 4.78051758 0.91796875 3.97119141 C0 2 0 2 0 0 Z " fill="#FCFEFD" transform="translate(255,66)"/>
<path d="M0 0 C1.08539063 0.48210937 2.17078125 0.96421875 3.2890625 1.4609375 C4.73431252 2.09909985 6.17962853 2.73711277 7.625 3.375 C8.33785156 3.69210937 9.05070312 4.00921875 9.78515625 4.3359375 C13.80459396 6.10596512 17.80107481 7.68866374 22 9 C21.67 11.64 21.34 14.28 21 17 C17.7 17 14.4 17 11 17 C11 13.37 11 9.74 11 6 C7.37 6 3.74 6 0 6 C0 4.02 0 2.04 0 0 Z " fill="#EAEAEA" transform="translate(72,259)"/>
<path d="M0 0 C3.63 0 7.26 0 11 0 C11 3.63 11 7.26 11 11 C7.37 11 3.74 11 0 11 C0 7.37 0 3.74 0 0 Z " fill="#FFFFFF" transform="translate(261,265)"/>
<path d="M0 0 C3.63 0 7.26 0 11 0 C11 3.63 11 7.26 11 11 C7.37 11 3.74 11 0 11 C0 7.37 0 3.74 0 0 Z " fill="#FFFFFF" transform="translate(240,265)"/>
<path d="M0 0 C3.63 0 7.26 0 11 0 C11 3.63 11 7.26 11 11 C7.37 11 3.74 11 0 11 C0 7.37 0 3.74 0 0 Z " fill="#FFFFFF" transform="translate(219,265)"/>
<path d="M0 0 C3.63 0 7.26 0 11 0 C11 3.63 11 7.26 11 11 C7.37 11 3.74 11 0 11 C0 7.37 0 3.74 0 0 Z " fill="#FFFFFF" transform="translate(198,265)"/>
<path d="M0 0 C3.63 0 7.26 0 11 0 C11 3.63 11 7.26 11 11 C7.37 11 3.74 11 0 11 C0 7.37 0 3.74 0 0 Z " fill="#FFFFFF" transform="translate(72,265)"/>
<path d="M0 0 C3.63 0 7.26 0 11 0 C11 3.63 11 7.26 11 11 C7.37 11 3.74 11 0 11 C0 7.37 0 3.74 0 0 Z " fill="#FFFFFF" transform="translate(51,265)"/>
<path d="M0 0 C3.63 0 7.26 0 11 0 C11 3.63 11 7.26 11 11 C7.37 11 3.74 11 0 11 C0 7.37 0 3.74 0 0 Z " fill="#FFFFFF" transform="translate(30,265)"/>
<path d="M0 0 C3.63 0 7.26 0 11 0 C11 3.63 11 7.26 11 11 C7.37 11 3.74 11 0 11 C0 7.37 0 3.74 0 0 Z " fill="#FFFFFF" transform="translate(9,265)"/>
<path d="M0 0 C3.63 0 7.26 0 11 0 C11 3.63 11 7.26 11 11 C7.37 11 3.74 11 0 11 C0 7.37 0 3.74 0 0 Z " fill="#FFFFFF" transform="translate(261,244)"/>
<path d="M0 0 C3.63 0 7.26 0 11 0 C11 3.63 11 7.26 11 11 C7.37 11 3.74 11 0 11 C0 7.37 0 3.74 0 0 Z " fill="#FFFFFF" transform="translate(240,244)"/>
<path d="M0 0 C3.63 0 7.26 0 11 0 C11 3.63 11 7.26 11 11 C7.37 11 3.74 11 0 11 C0 7.37 0 3.74 0 0 Z " fill="#FFFFFF" transform="translate(30,244)"/>
<path d="M0 0 C3.63 0 7.26 0 11 0 C11 3.63 11 7.26 11 11 C7.37 11 3.74 11 0 11 C0 7.37 0 3.74 0 0 Z " fill="#FFFFFF" transform="translate(9,244)"/>
<path d="M0 0 C3.63 0 7.26 0 11 0 C11 3.63 11 7.26 11 11 C7.37 11 3.74 11 0 11 C0 7.37 0 3.74 0 0 Z " fill="#FFFFFF" transform="translate(261,223)"/>
<path d="M0 0 C3.63 0 7.26 0 11 0 C11 3.63 11 7.26 11 11 C7.37 11 3.74 11 0 11 C0 7.37 0 3.74 0 0 Z " fill="#FFFFFF" transform="translate(9,223)"/>
<path d="M0 0 C3.63 0 7.26 0 11 0 C11 3.63 11 7.26 11 11 C7.37 11 3.74 11 0 11 C0 7.37 0 3.74 0 0 Z " fill="#FFFFFF" transform="translate(261,202)"/>
<path d="M0 0 C3.63 0 7.26 0 11 0 C11 3.63 11 7.26 11 11 C7.37 11 3.74 11 0 11 C0 7.37 0 3.74 0 0 Z " fill="#FFFFFF" transform="translate(261,55)"/>
<path d="M0 0 C3.63 0 7.26 0 11 0 C11 3.63 11 7.26 11 11 C7.37 11 3.74 11 0 11 C0 7.37 0 3.74 0 0 Z " fill="#FFFFFF" transform="translate(9,55)"/>
<path d="M0 0 C3.63 0 7.26 0 11 0 C11 3.63 11 7.26 11 11 C7.37 11 3.74 11 0 11 C0 7.37 0 3.74 0 0 Z " fill="#FFFFFF" transform="translate(261,34)"/>
<path d="M0 0 C3.63 0 7.26 0 11 0 C11 3.63 11 7.26 11 11 C7.37 11 3.74 11 0 11 C0 7.37 0 3.74 0 0 Z " fill="#FFFFFF" transform="translate(240,34)"/>
<path d="M0 0 C3.63 0 7.26 0 11 0 C11 3.63 11 7.26 11 11 C7.37 11 3.74 11 0 11 C0 7.37 0 3.74 0 0 Z " fill="#FFFFFF" transform="translate(30,34)"/>
<path d="M0 0 C3.63 0 7.26 0 11 0 C11 3.63 11 7.26 11 11 C7.37 11 3.74 11 0 11 C0 7.37 0 3.74 0 0 Z " fill="#FFFFFF" transform="translate(9,34)"/>
<path d="M0 0 C0.99 0 1.98 0 3 0 C3 17.49 3 34.98 3 53 C1.35 53 -0.3 53 -2 53 C-1.86722656 52.26136719 -1.73445313 51.52273437 -1.59765625 50.76171875 C1.36805117 33.72513671 1.50346251 17.1824287 0 0 Z " fill="#EBF0F0" transform="translate(274,118)"/>
<path d="M0 0 C2.13070217 3.19605326 0.8438379 6.14155803 0.1875 9.78125 C-3.4425 9.78125 -7.0725 9.78125 -10.8125 9.78125 C-10.8125 6.48125 -10.8125 3.18125 -10.8125 -0.21875 C-9.389375 -0.445625 -7.96625 -0.6725 -6.5 -0.90625 C-5.69949219 -1.03386719 -4.89898437 -1.16148437 -4.07421875 -1.29296875 C-1.8125 -1.21875 -1.8125 -1.21875 0 0 Z " fill="#EDEDED" transform="translate(40.8125,234.21875)"/>
<path d="M0 0 C3.63 0 7.26 0 11 0 C11 3.3 11 6.6 11 10 C7.37 10 3.74 10 0 10 C0 6.7 0 3.4 0 0 Z " fill="#EFEFEF" transform="translate(261,255)"/>
<path d="M0 0 C3.63 0 7.26 0 11 0 C11 3.3 11 6.6 11 10 C7.37 10 3.74 10 0 10 C0 6.7 0 3.4 0 0 Z " fill="#EFEFEF" transform="translate(51,255)"/>
<path d="M0 0 C3.63 0 7.26 0 11 0 C11 3.3 11 6.6 11 10 C7.37 10 3.74 10 0 10 C0 6.7 0 3.4 0 0 Z " fill="#EFEFEF" transform="translate(30,255)"/>
<path d="M0 0 C3.63 0 7.26 0 11 0 C11 3.3 11 6.6 11 10 C7.37 10 3.74 10 0 10 C0 6.7 0 3.4 0 0 Z " fill="#EFEFEF" transform="translate(9,255)"/>
<path d="M0 0 C3.3 0 6.6 0 10 0 C10 3.63 10 7.26 10 11 C6.7 11 3.4 11 0 11 C0 7.37 0 3.74 0 0 Z " fill="#EFEFEF" transform="translate(230,244)"/>
<path d="M0 0 C3.3 0 6.6 0 10 0 C10 3.63 10 7.26 10 11 C6.7 11 3.4 11 0 11 C0 7.37 0 3.74 0 0 Z " fill="#EFEFEF" transform="translate(20,244)"/>
<path d="M0 0 C3.63 0 7.26 0 11 0 C11 3.3 11 6.6 11 10 C7.37 10 3.74 10 0 10 C0 6.7 0 3.4 0 0 Z " fill="#EFEFEF" transform="translate(240,234)"/>
<path d="M0 0 C3.63 0 7.26 0 11 0 C11 3.3 11 6.6 11 10 C7.37 10 3.74 10 0 10 C0 6.7 0 3.4 0 0 Z " fill="#EFEFEF" transform="translate(261,213)"/>
<path d="M0 0 C3.63 0 7.26 0 11 0 C11 3.3 11 6.6 11 10 C7.37 10 3.74 10 0 10 C0 6.7 0 3.4 0 0 Z " fill="#EFEFEF" transform="translate(9,213)"/>
<path d="M0 0 C1.65 0 3.3 0 5 0 C5 3.3 5 6.6 5 10 C3.35 10 1.7 10 0 10 C0 13.63 0 17.26 0 21 C-1.98 21 -3.96 21 -6 21 C-5.21511292 16.42600291 -3.84473878 12.09842491 -2.4375 7.6875 C-2.20353516 6.94693359 -1.96957031 6.20636719 -1.72851562 5.44335938 C-1.15468028 3.62816595 -0.57765989 1.81397994 0 0 Z " fill="#F3F8F8" transform="translate(272,171)"/>
<path d="M0 0 C3.63 0 7.26 0 11 0 C11 3.3 11 6.6 11 10 C7.37 10 3.74 10 0 10 C0 6.7 0 3.4 0 0 Z " fill="#EFEFEF" transform="translate(261,66)"/>
<path d="M0 0 C3.63 0 7.26 0 11 0 C11 3.3 11 6.6 11 10 C7.37 10 3.74 10 0 10 C0 6.7 0 3.4 0 0 Z " fill="#EFEFEF" transform="translate(261,45)"/>
<path d="M0 0 C3.63 0 7.26 0 11 0 C11 3.3 11 6.6 11 10 C7.37 10 3.74 10 0 10 C0 6.7 0 3.4 0 0 Z " fill="#EFEFEF" transform="translate(261,24)"/>
<path d="M0 0 C3.63 0 7.26 0 11 0 C11 3.3 11 6.6 11 10 C7.37 10 3.74 10 0 10 C0 6.7 0 3.4 0 0 Z " fill="#EFEFEF" transform="translate(30,24)"/>
<path d="M0 0 C3.63 0 7.26 0 11 0 C11 3.3 11 6.6 11 10 C7.37 10 3.74 10 0 10 C0 6.7 0 3.4 0 0 Z " fill="#EFEFEF" transform="translate(9,24)"/>
<path d="M0 0 C3.3 0 6.6 0 10 0 C10 3.63 10 7.26 10 11 C6.7 11 3.4 11 0 11 C0 7.37 0 3.74 0 0 Z " fill="#EFEFEF" transform="translate(230,13)"/>
<path d="M0 0 C3.63 0 7.26 0 11 0 C11 3.3 11 6.6 11 10 C7.37 10 3.74 10 0 10 C0 6.7 0 3.4 0 0 Z " fill="#EFEFEF" transform="translate(261,3)"/>
<path d="M0 0 C3.63 0 7.26 0 11 0 C11 3.3 11 6.6 11 10 C7.37 10 3.74 10 0 10 C0 6.7 0 3.4 0 0 Z " fill="#EFEFEF" transform="translate(240,3)"/>
<path d="M0 0 C3.63 0 7.26 0 11 0 C11 3.3 11 6.6 11 10 C7.37 10 3.74 10 0 10 C0 6.7 0 3.4 0 0 Z " fill="#EFEFEF" transform="translate(219,3)"/>
<path d="M0 0 C3.63 0 7.26 0 11 0 C11 3.3 11 6.6 11 10 C7.37 10 3.74 10 0 10 C0 6.7 0 3.4 0 0 Z " fill="#EFEFEF" transform="translate(198,3)"/>
<path d="M0 0 C3.63 0 7.26 0 11 0 C11 3.3 11 6.6 11 10 C7.37 10 3.74 10 0 10 C0 6.7 0 3.4 0 0 Z " fill="#EFEFEF" transform="translate(72,3)"/>
<path d="M0 0 C3.63 0 7.26 0 11 0 C11 3.3 11 6.6 11 10 C7.37 10 3.74 10 0 10 C0 6.7 0 3.4 0 0 Z " fill="#EFEFEF" transform="translate(51,3)"/>
<path d="M0 0 C3.63 0 7.26 0 11 0 C11 3.3 11 6.6 11 10 C7.37 10 3.74 10 0 10 C0 6.7 0 3.4 0 0 Z " fill="#EFEFEF" transform="translate(30,3)"/>
<path d="M0 0 C3.63 0 7.26 0 11 0 C11 3.3 11 6.6 11 10 C7.37 10 3.74 10 0 10 C0 6.7 0 3.4 0 0 Z " fill="#EFEFEF" transform="translate(9,3)"/>
<path d="M0 0 C3.3 0 6.6 0 10 0 C10 3.3 10 6.6 10 10 C6.7 10 3.4 10 0 10 C0 6.7 0 3.4 0 0 Z " fill="#FFFFFF" transform="translate(251,255)"/>
<path d="M0 0 C3.3 0 6.6 0 10 0 C10 3.3 10 6.6 10 10 C6.7 10 3.4 10 0 10 C0 6.7 0 3.4 0 0 Z " fill="#FFFFFF" transform="translate(230,255)"/>
<path d="M0 0 C3.3 0 6.6 0 10 0 C10 3.3 10 6.6 10 10 C6.7 10 3.4 10 0 10 C0 6.7 0 3.4 0 0 Z " fill="#FFFFFF" transform="translate(41,255)"/>
<path d="M0 0 C3.3 0 6.6 0 10 0 C10 3.3 10 6.6 10 10 C6.7 10 3.4 10 0 10 C0 6.7 0 3.4 0 0 Z " fill="#FFFFFF" transform="translate(20,255)"/>
<path d="M0 0 C3.3 0 6.6 0 10 0 C10 3.3 10 6.6 10 10 C6.7 10 3.4 10 0 10 C0 6.7 0 3.4 0 0 Z " fill="#FFFFFF" transform="translate(251,234)"/>
<path d="M0 0 C3.3 0 6.6 0 10 0 C10 3.3 10 6.6 10 10 C6.7 10 3.4 10 0 10 C0 6.7 0 3.4 0 0 Z " fill="#FFFFFF" transform="translate(20,234)"/>
<path d="M0 0 C3.3 0 6.6 0 10 0 C10 3.3 10 6.6 10 10 C6.7 10 3.4 10 0 10 C0 6.7 0 3.4 0 0 Z " fill="#FFFFFF" transform="translate(251,45)"/>
<path d="M0 0 C3.3 0 6.6 0 10 0 C10 3.3 10 6.6 10 10 C6.7 10 3.4 10 0 10 C0 6.7 0 3.4 0 0 Z " fill="#FFFFFF" transform="translate(20,45)"/>
<path d="M0 0 C3.3 0 6.6 0 10 0 C10 3.3 10 6.6 10 10 C6.7 10 3.4 10 0 10 C0 6.7 0 3.4 0 0 Z " fill="#FFFFFF" transform="translate(251,24)"/>
<path d="M0 0 C3.3 0 6.6 0 10 0 C10 3.3 10 6.6 10 10 C6.7 10 3.4 10 0 10 C0 6.7 0 3.4 0 0 Z " fill="#FFFFFF" transform="translate(230,24)"/>
<path d="M0 0 C3.3 0 6.6 0 10 0 C10 3.3 10 6.6 10 10 C6.7 10 3.4 10 0 10 C0 6.7 0 3.4 0 0 Z " fill="#FFFFFF" transform="translate(41,24)"/>
<path d="M0 0 C3.3 0 6.6 0 10 0 C10 3.3 10 6.6 10 10 C6.7 10 3.4 10 0 10 C0 6.7 0 3.4 0 0 Z " fill="#FFFFFF" transform="translate(20,24)"/>
<path d="M0 0 C2.97 0 5.94 0 9 0 C9 3.63 9 7.26 9 11 C6.03 11 3.06 11 0 11 C0 7.37 0 3.74 0 0 Z " fill="#EFEFEF" transform="translate(0,244)"/>
<path d="M0 0 C2.97 0 5.94 0 9 0 C9 3.63 9 7.26 9 11 C6.03 11 3.06 11 0 11 C0 7.37 0 3.74 0 0 Z " fill="#EFEFEF" transform="translate(0,55)"/>
<path d="M0 0 C2.97 0 5.94 0 9 0 C9 3.3 9 6.6 9 10 C6.03 10 3.06 10 0 10 C0 6.7 0 3.4 0 0 Z " fill="#FFFFFF" transform="translate(0,255)"/>
<path d="M0 0 C2.97 0 5.94 0 9 0 C9 3.3 9 6.6 9 10 C6.03 10 3.06 10 0 10 C0 6.7 0 3.4 0 0 Z " fill="#FFFFFF" transform="translate(0,234)"/>
<path d="M0 0 C2.97 0 5.94 0 9 0 C9 3.3 9 6.6 9 10 C6.03 10 3.06 10 0 10 C0 6.7 0 3.4 0 0 Z " fill="#FFFFFF" transform="translate(0,213)"/>
<path d="M0 0 C2.97 0 5.94 0 9 0 C9 3.3 9 6.6 9 10 C6.03 10 3.06 10 0 10 C0 6.7 0 3.4 0 0 Z " fill="#FFFFFF" transform="translate(0,192)"/>
<path d="M0 0 C2.97 0 5.94 0 9 0 C9 3.3 9 6.6 9 10 C6.03 10 3.06 10 0 10 C0 6.7 0 3.4 0 0 Z " fill="#FFFFFF" transform="translate(0,87)"/>
<path d="M0 0 C2.97 0 5.94 0 9 0 C9 3.3 9 6.6 9 10 C6.03 10 3.06 10 0 10 C0 6.7 0 3.4 0 0 Z " fill="#FFFFFF" transform="translate(0,66)"/>
<path d="M0 0 C2.97 0 5.94 0 9 0 C9 3.3 9 6.6 9 10 C6.03 10 3.06 10 0 10 C0 6.7 0 3.4 0 0 Z " fill="#FFFFFF" transform="translate(0,45)"/>
<path d="M0 0 C2.97 0 5.94 0 9 0 C9 3.3 9 6.6 9 10 C6.03 10 3.06 10 0 10 C0 6.7 0 3.4 0 0 Z " fill="#FFFFFF" transform="translate(0,24)"/>
<path d="M0 0 C2.31 0 4.62 0 7 0 C7 3.3 7 6.6 7 10 C3.37 10 -0.26 10 -4 10 C-2.8905928 6.51329166 -1.73662334 3.22515763 0 0 Z " fill="#EBEDED" transform="translate(265,192)"/>
<path d="M0 0 C3.63 0 7.26 0 11 0 C11 2.97 11 5.94 11 9 C1.89285714 7.125 1.89285714 7.125 -2 5 C-1.34 5 -0.68 5 0 5 C0 3.35 0 1.7 0 0 Z " fill="#ECEEEE" transform="translate(177,3)"/>
<path d="M0 0 C3.63 0 7.26 0 11 0 C11 1.65 11 3.3 11 5 C9.35500958 5.66874384 7.70898352 6.33494074 6.0625 7 C5.14597656 7.37125 4.22945313 7.7425 3.28515625 8.125 C1 9 1 9 0 9 C0 6.03 0 3.06 0 0 Z " fill="#EBEBEB" transform="translate(93,3)"/>
<path d="M0 0 C2.97 0 5.94 0 9 0 C8.52269162 1.4589426 8.04308958 2.91713496 7.5625 4.375 C7.29566406 5.18710938 7.02882813 5.99921875 6.75390625 6.8359375 C6 9 6 9 5 11 C3.35 11 1.7 11 0 11 C0 7.37 0 3.74 0 0 Z " fill="#FCFCFC" transform="translate(9,76)"/>
<path d="M0 0 C1.98 0 3.96 0 6 0 C7.60355101 3.50776784 8.22036864 6.14354879 8 10 C5.36 10 2.72 10 0 10 C0 6.7 0 3.4 0 0 Z " fill="#FDFDFD" transform="translate(0,171)"/>
<path d="M0 0 C0 1.65 0 3.3 0 5 C-19.31303433 7.34605189 -19.31303433 7.34605189 -25 4 C-24.02160156 3.87882812 -23.04320312 3.75765625 -22.03515625 3.6328125 C-14.91784224 2.7302085 -7.02784229 0 0 0 Z " fill="#E6EEEE" transform="translate(177,271)"/>
<path d="M0 0 C3.9492568 0.55105909 7.34920174 1.38935371 11 3 C11 4.32 11 5.64 11 7 C7.37 7 3.74 7 0 7 C0 4.69 0 2.38 0 0 Z " fill="#FAFAFA" transform="translate(93,269)"/>
<path d="M0 0 C1.20683455 3.62050366 0.63901465 5.23273715 0 9 C-0.26809778 12.78824347 -0.41316558 16.58043695 -0.5625 20.375 C-0.60568359 21.39722656 -0.64886719 22.41945312 -0.69335938 23.47265625 C-0.79887792 25.98165288 -0.90099213 28.49073943 -1 31 C-1.33 31 -1.66 31 -2 31 C-2 25.06 -2 19.12 -2 13 C-2.66 13 -3.32 13 -4 13 C-4 9.37 -4 5.74 -4 2 C-2.68 2 -1.36 2 0 2 C0 1.34 0 0.68 0 0 Z " fill="#DADADA" transform="translate(4,116)"/>
<path d="M0 0 C1.66666667 1.66666667 3.33333333 3.33333333 5 5 C5.763125 5.721875 6.52625 6.44375 7.3125 7.1875 C9 9 9 9 9 11 C6.03 11 3.06 11 0 11 C0 7.37 0 3.74 0 0 Z " fill="#FCFCFC" transform="translate(30,223)"/>
<path d="M0 0 C2.475 0.495 2.475 0.495 5 1 C5.33 4.3 5.66 7.6 6 11 C4.02 11 2.04 11 0 11 C0 7.37 0 3.74 0 0 Z " fill="#E8E8E8" transform="translate(0,160)"/>
<path d="M0 0 C1.65 0 3.3 0 5 0 C5 3.63 5 7.26 5 11 C3.35 11 1.7 11 0 11 C0 7.37 0 3.74 0 0 Z " fill="#EFEFEF" transform="translate(272,244)"/>
<path d="M0 0 C0.99 0 1.98 0 3 0 C3.04951788 4.4840341 3.08577526 8.96792239 3.10986328 13.45214844 C3.11990744 14.97691623 3.13354531 16.50166484 3.15087891 18.02636719 C3.17519738 20.22075138 3.18649889 22.41488042 3.1953125 24.609375 C3.20578613 25.92905273 3.21625977 27.24873047 3.22705078 28.60839844 C3.0179275 31.73220559 2.66605136 33.40580238 1 36 C1.00523682 35.40687012 1.01047363 34.81374023 1.01586914 34.20263672 C1.10341746 22.7504305 1.09047353 11.41102662 0 0 Z " fill="#E0ECEC" transform="translate(274,118)"/>
<path d="M0 0 C1.98 0 3.96 0 6 0 C5.125 7.75 5.125 7.75 4 10 C2.68 10 1.36 10 0 10 C0 6.7 0 3.4 0 0 Z " fill="#FDFDFD" transform="translate(0,108)"/>
<path d="M0 0 C1.65 0 3.3 0 5 0 C5 3.3 5 6.6 5 10 C3.35 10 1.7 10 0 10 C0 6.7 0 3.4 0 0 Z " fill="#FFFFFF" transform="translate(272,255)"/>
<path d="M0 0 C1.65 0 3.3 0 5 0 C5 3.3 5 6.6 5 10 C3.35 10 1.7 10 0 10 C0 6.7 0 3.4 0 0 Z " fill="#FFFFFF" transform="translate(272,234)"/>
<path d="M0 0 C1.65 0 3.3 0 5 0 C5 3.3 5 6.6 5 10 C3.35 10 1.7 10 0 10 C0 6.7 0 3.4 0 0 Z " fill="#FFFFFF" transform="translate(272,213)"/>
<path d="M0 0 C1.65 0 3.3 0 5 0 C5 3.3 5 6.6 5 10 C3.35 10 1.7 10 0 10 C0 6.7 0 3.4 0 0 Z " fill="#FFFFFF" transform="translate(272,192)"/>
<path d="M0 0 C1.65 0 3.3 0 5 0 C5 3.3 5 6.6 5 10 C3.35 10 1.7 10 0 10 C0 6.7 0 3.4 0 0 Z " fill="#FEFEFE" transform="translate(272,171)"/>
<path d="M0 0 C1.65 0 3.3 0 5 0 C5 3.3 5 6.6 5 10 C3.35 10 1.7 10 0 10 C0 6.7 0 3.4 0 0 Z " fill="#FFFFFF" transform="translate(272,87)"/>
<path d="M0 0 C1.65 0 3.3 0 5 0 C5 3.3 5 6.6 5 10 C3.35 10 1.7 10 0 10 C0 6.7 0 3.4 0 0 Z " fill="#FFFFFF" transform="translate(272,66)"/>
<path d="M0 0 C1.65 0 3.3 0 5 0 C5 3.3 5 6.6 5 10 C3.35 10 1.7 10 0 10 C0 6.7 0 3.4 0 0 Z " fill="#FFFFFF" transform="translate(272,45)"/>
<path d="M0 0 C1.65 0 3.3 0 5 0 C5 3.3 5 6.6 5 10 C3.35 10 1.7 10 0 10 C0 6.7 0 3.4 0 0 Z " fill="#FFFFFF" transform="translate(272,24)"/>
<path d="M0 0 C2.31 0 4.62 0 7 0 C7 3.3 7 6.6 7 10 C5.68 9.67 4.36 9.34 3 9 C1.953125 6.93359375 1.953125 6.93359375 1.25 4.4375 C1.00765625 3.61121094 0.7653125 2.78492187 0.515625 1.93359375 C0.34546875 1.29550781 0.1753125 0.65742187 0 0 Z " fill="#EBEDED" transform="translate(265,87)"/>
<path d="M0 0 C4.2742558 1.5830577 6.26531794 4.50568404 9 8 C6.03 8 3.06 8 0 8 C0 5.36 0 2.72 0 0 Z " fill="#F9F9F9" transform="translate(41,236)"/>
<path d="M0 0 C1.65 0 3.3 0 5 0 C5 3.3 5 6.6 5 10 C4.01 10 3.02 10 2 10 C1.34 6.7 0.68 3.4 0 0 Z " fill="#F7FBFB" transform="translate(272,108)"/>
<path d="M0 0 C0.33 0 0.66 0 1 0 C1 3.3 1 6.6 1 10 C-0.98 10 -2.96 10 -5 10 C-3.35 6.7 -1.7 3.4 0 0 Z " fill="#E7ECEC" transform="translate(260,203)"/>
<path d="M0 0 C4.02992782 0.55312735 8.02022924 1.1558062 12 2 C10 4 10 4 7.6171875 4.1953125 C6.71226563 4.17210937 5.80734375 4.14890625 4.875 4.125 C3.50988281 4.09792969 3.50988281 4.09792969 2.1171875 4.0703125 C1.41851562 4.04710937 0.71984375 4.02390625 0 4 C0 2.68 0 1.36 0 0 Z " fill="#E6E6E6" transform="translate(104,272)"/>
<path d="M0 0 C3.63 0 7.26 0 11 0 C11 0.99 11 1.98 11 3 C6.83861737 3.08159574 3.0527516 2.98248524 -1 2 C-0.67 1.34 -0.34 0.68 0 0 Z " fill="#E4EBEB" transform="translate(156,3)"/>
<path d="M0 0 C3.63 0 7.26 0 11 0 C10.67 0.66 10.34 1.32 10 2 C7.71484375 2.4140625 7.71484375 2.4140625 4.9375 2.625 C4.01839844 2.69976562 3.09929687 2.77453125 2.15234375 2.8515625 C1.44207031 2.90054687 0.73179688 2.94953125 0 3 C0 2.01 0 1.02 0 0 Z " fill="#E5E5E5" transform="translate(114,3)"/>
<path d="M0 0 C1.98 0 3.96 0 6 0 C6 1.65 6 3.3 6 5 C4.02 4.01 2.04 3.02 0 2 C0 1.34 0 0.68 0 0 Z " fill="#F5FBFA" transform="translate(213,24)"/>
<path d="M0 0 C0.66 0.33 1.32 0.66 2 1 C0.875 3.5 0.875 3.5 -1 6 C-4.1875 6.3125 -4.1875 6.3125 -7 6 C-6.21625 5.38125 -5.4325 4.7625 -4.625 4.125 C-2.03162353 2.10141339 -2.03162353 2.10141339 0 0 Z " fill="#E0ECEC" transform="translate(220,249)"/>
<path d="M0 0 C0.99 0.495 0.99 0.495 2 1 C2.40729228 3.32156597 2.74438677 5.6568787 3 8 C2.01 8 1.02 8 0 8 C0 5.36 0 2.72 0 0 Z " fill="#F6F6F6" transform="translate(9,184)"/>
<path d="M0 0 C2.64 0 5.28 0 8 0 C7.67 1.32 7.34 2.64 7 4 C4.69 3.01 2.38 2.02 0 1 C0 0.67 0 0.34 0 0 Z " fill="#E5ECEC" transform="translate(190,13)"/>
</svg>
